<svg xmlns="http://www.w3.org/2000/svg" xmlns:xlink="http://www.w3.org/1999/xlink" width="127.001" height="127.001" viewBox="0 0 127.001 127.001">
  <defs>
    <filter id="Oval" x="0" y="0" width="127.001" height="127.001" filterUnits="userSpaceOnUse">
      <feOffset dy="3" input="SourceAlpha"/>
      <feGaussianBlur stdDeviation="3" result="blur"/>
      <feFlood flood-opacity="0.161"/>
      <feComposite operator="in" in2="blur"/>
      <feComposite in="SourceGraphic"/>
    </filter>
  </defs>
  <g id="E-mail" transform="translate(9 6)">
    <g transform="matrix(1, 0, 0, 1, -9, -6)" filter="url(#Oval)">
      <circle id="Oval-2" data-name="Oval" cx="54.501" cy="54.501" r="54.501" transform="translate(9 6)" fill="#2f75ec"/>
    </g>
    <path id="Mail" d="M6.752,30.745a7.073,7.073,0,0,1-3.966-1.224l1.38-1.5L17.018,14.086l4.846,3.3.229.08h.077a.96.96,0,0,0,.121.009.926.926,0,0,0,.119-.009.815.815,0,0,0,.239,0h.077l.162-.08,4.885-3.318L40.557,27.983l1.35,1.468a7.433,7.433,0,0,1-4.174,1.288H7.039C6.933,30.743,6.839,30.745,6.752,30.745ZM1.418,28.1h0A8.284,8.284,0,0,1,0,23.347L.01,7.37A8.559,8.559,0,0,1,1.045,3.207L2.662,4.313l12.651,8.638L2.778,26.626,1.42,28.1Zm41.916-.01h0l-1.368-1.5L29.439,12.91l12.64-8.6,1.629-1.1a8.17,8.17,0,0,1,1,4.183V23.347a7.83,7.83,0,0,1-1.377,4.745ZM22.276,15.274h0L17.487,12a.969.969,0,0,0-.345-.221L3.984,2.835,2.251,1.658A6.838,6.838,0,0,1,6.689,0c.135,0,.249,0,.35.009H37.626l.187,0a7.325,7.325,0,0,1,4.6,1.651L40.671,2.845,22.277,15.273Z" transform="translate(32.142 39.129)" fill="#fff"/>
  </g>
</svg>
