<svg xmlns="http://www.w3.org/2000/svg" width="109.002" height="109" viewBox="0 0 109.002 109">
  <g id="TikTok-mainpage" transform="translate(-51 -89)">
    <ellipse id="Oval" cx="54.501" cy="54.5" rx="54.501" ry="54.5" transform="translate(51 89)" fill="none"/>
    <path id="tiktok-icon" d="M33.028,0C33.885,7.375,38,11.772,45.158,12.239v8.3c-4.147.405-7.78-.951-12.005-3.508V32.539c0,19.708-21.485,25.866-30.123,11.74C-2.52,35.19.878,19.24,18.684,18.6v8.747a25.762,25.762,0,0,0-4.132,1.013c-3.96,1.34-6.205,3.852-5.582,8.28,1.2,8.482,16.761,10.992,15.467-5.582V.016h8.591Z" transform="translate(82.409 118)" fill="#fff" fill-rule="evenodd"/>
  </g>
</svg>
