<svg id="Youtube--mainpage" xmlns="http://www.w3.org/2000/svg" width="109.002" height="109.002" viewBox="0 0 109.002 109.002">
  <circle id="Oval" cx="54.501" cy="54.501" r="54.501" transform="translate(0 0)" fill="none"/>
  <path id="Youtube" d="M25.154,39.129h0c-.131,0-13.145-.1-17.087-.533-.212-.05-.47-.087-.769-.13A7.053,7.053,0,0,1,2.516,36.2C1.059,34.524.526,30.719.521,30.681A89.076,89.076,0,0,1,0,21.7V17.519c0-4.475.515-9.025.521-9.071S.973,4.6,2.515,2.934A6.853,6.853,0,0,1,7.4.636h.01L7.55.623C14.489.1,25.048,0,25.154,0S35.819.1,42.762.623L43,.642a6.4,6.4,0,0,1,4.792,2.292c1.456,1.67,1.99,5.476,1.995,5.514s.521,4.592.521,9.071V21.7c0,4.387-.515,8.936-.521,8.981s-.539,3.844-1.995,5.514a6.853,6.853,0,0,1-4.88,2.3H42.9l-.14.013C35.817,39.121,25.26,39.129,25.154,39.129ZM19.082,10.582v19.3l16.481-9.427Z" transform="translate(29.347 34.936)" fill="#fff"/>
</svg>
